<mxfile host="app.diagrams.net" modified="2024-06-19T14:29:28.838Z" agent="Mozilla/5.0 (Windows NT 10.0; Win64; x64) AppleWebKit/537.36 (KHTML, like Gecko) Chrome/125.0.0.0 Safari/537.36 Edg/125.0.0.0" etag="OGtjxB5a2H2zXATm-QlD" version="24.5.4" type="device">
  <diagram name="Page-1" id="5f0bae14-7c28-e335-631c-24af17079c00">
    <mxGraphModel dx="2614" dy="1715" grid="1" gridSize="10" guides="1" tooltips="1" connect="1" arrows="1" fold="1" page="1" pageScale="1" pageWidth="1100" pageHeight="850" background="none" math="0" shadow="0">
      <root>
        <mxCell id="0" />
        <mxCell id="1" parent="0" />
        <mxCell id="AY9wH07KmgAVZhraWsbL-15" value="Containers" style="verticalAlign=top;align=left;spacingTop=8;spacingLeft=2;spacingRight=12;shape=cube;size=10;direction=south;fontStyle=4;html=1;rounded=0;shadow=0;comic=0;labelBackgroundColor=none;strokeWidth=1;fontFamily=Verdana;fontSize=12" vertex="1" parent="1">
          <mxGeometry x="-161" y="430" width="310" height="273" as="geometry" />
        </mxCell>
        <mxCell id="AY9wH07KmgAVZhraWsbL-14" value="Log Files" style="verticalAlign=top;align=left;spacingTop=8;spacingLeft=2;spacingRight=12;shape=cube;size=10;direction=south;fontStyle=4;html=1;rounded=0;shadow=0;comic=0;labelBackgroundColor=none;strokeWidth=1;fontFamily=Verdana;fontSize=12" vertex="1" parent="1">
          <mxGeometry x="242" y="440" width="530" height="210" as="geometry" />
        </mxCell>
        <mxCell id="AY9wH07KmgAVZhraWsbL-13" value="Threads" style="verticalAlign=top;align=left;spacingTop=8;spacingLeft=2;spacingRight=12;shape=cube;size=10;direction=south;fontStyle=4;html=1;rounded=0;shadow=0;comic=0;labelBackgroundColor=none;strokeWidth=1;fontFamily=Verdana;fontSize=12" vertex="1" parent="1">
          <mxGeometry x="246" y="280" width="530" height="120" as="geometry" />
        </mxCell>
        <mxCell id="39150e848f15840c-1" value="StateMachines" style="verticalAlign=top;align=left;spacingTop=8;spacingLeft=2;spacingRight=12;shape=cube;size=10;direction=south;fontStyle=4;html=1;rounded=0;shadow=0;comic=0;labelBackgroundColor=none;strokeWidth=1;fontFamily=Verdana;fontSize=12" parent="1" vertex="1">
          <mxGeometry x="-160" y="50" width="330" height="130" as="geometry" />
        </mxCell>
        <mxCell id="39150e848f15840c-2" value="Teachix" style="verticalAlign=top;align=left;spacingTop=8;spacingLeft=2;spacingRight=12;shape=cube;size=10;direction=south;fontStyle=4;html=1;rounded=0;shadow=0;comic=0;labelBackgroundColor=none;strokeWidth=1;fontFamily=Verdana;fontSize=12" parent="1" vertex="1">
          <mxGeometry x="240" y="-10" width="530" height="260" as="geometry" />
        </mxCell>
        <mxCell id="39150e848f15840c-4" value="&lt;div&gt;&lt;span style=&quot;background-color: initial;&quot;&gt;User defines:&lt;/span&gt;&lt;/div&gt;&lt;div&gt;JSON Files&lt;/div&gt;&lt;div&gt;States &amp;amp; Transitions&lt;/div&gt;" style="html=1;rounded=0;shadow=0;comic=0;labelBackgroundColor=none;strokeWidth=1;fontFamily=Verdana;fontSize=12;align=center;" parent="1" vertex="1">
          <mxGeometry x="-140" y="88" width="150" height="54" as="geometry" />
        </mxCell>
        <mxCell id="W2CoI75CdyUiyKa4dSAK-4" value="" style="endArrow=classic;html=1;rounded=0;entryX=0.5;entryY=0;entryDx=0;entryDy=0;" parent="1" source="39150e848f15840c-4" target="W2CoI75CdyUiyKa4dSAK-45" edge="1">
          <mxGeometry width="50" height="50" relative="1" as="geometry">
            <mxPoint x="220" y="390" as="sourcePoint" />
            <mxPoint x="270" y="340" as="targetPoint" />
          </mxGeometry>
        </mxCell>
        <mxCell id="W2CoI75CdyUiyKa4dSAK-6" value="&lt;div&gt;User defines:&lt;/div&gt;&lt;div&gt;Command I&lt;span style=&quot;background-color: initial;&quot;&gt;mages&lt;/span&gt;&lt;/div&gt;&lt;div&gt;Command Texts&lt;/div&gt;&lt;div&gt;Feedback Images&lt;/div&gt;&lt;div&gt;Feedback Codes&lt;/div&gt;" style="html=1;rounded=0;shadow=0;comic=0;labelBackgroundColor=none;strokeWidth=1;fontFamily=Verdana;fontSize=12;align=center;" parent="1" vertex="1">
          <mxGeometry x="30" y="80" width="120" height="90" as="geometry" />
        </mxCell>
        <mxCell id="W2CoI75CdyUiyKa4dSAK-7" value="&lt;div&gt;SM Artec Scan&lt;/div&gt;" style="html=1;rounded=0;shadow=0;comic=0;labelBackgroundColor=none;strokeWidth=1;fontFamily=Verdana;fontSize=12;align=center;" parent="1" vertex="1">
          <mxGeometry x="437" y="25" width="140" height="30" as="geometry" />
        </mxCell>
        <mxCell id="W2CoI75CdyUiyKa4dSAK-8" value="&lt;div&gt;SM Artec Processing&lt;/div&gt;" style="html=1;rounded=0;shadow=0;comic=0;labelBackgroundColor=none;strokeWidth=1;fontFamily=Verdana;fontSize=12;align=center;" parent="1" vertex="1">
          <mxGeometry x="437" y="100" width="140" height="30" as="geometry" />
        </mxCell>
        <mxCell id="W2CoI75CdyUiyKa4dSAK-9" value="&lt;div&gt;SM Cobot&lt;/div&gt;" style="html=1;rounded=0;shadow=0;comic=0;labelBackgroundColor=none;strokeWidth=1;fontFamily=Verdana;fontSize=12;align=center;" parent="1" vertex="1">
          <mxGeometry x="437" y="60" width="140" height="30" as="geometry" />
        </mxCell>
        <mxCell id="W2CoI75CdyUiyKa4dSAK-10" value="&lt;div&gt;SM DK Processing&lt;/div&gt;" style="html=1;rounded=0;shadow=0;comic=0;labelBackgroundColor=none;strokeWidth=1;fontFamily=Verdana;fontSize=12;align=center;" parent="1" vertex="1">
          <mxGeometry x="437" y="140" width="140" height="30" as="geometry" />
        </mxCell>
        <mxCell id="W2CoI75CdyUiyKa4dSAK-11" value="&lt;div&gt;SM Anneke&lt;span style=&quot;background-color: initial;&quot;&gt;&amp;nbsp;Processing&lt;/span&gt;&lt;/div&gt;" style="html=1;rounded=0;shadow=0;comic=0;labelBackgroundColor=none;strokeWidth=1;fontFamily=Verdana;fontSize=12;align=center;" parent="1" vertex="1">
          <mxGeometry x="437" y="180" width="140" height="30" as="geometry" />
        </mxCell>
        <mxCell id="W2CoI75CdyUiyKa4dSAK-12" value="&lt;div&gt;Command&lt;/div&gt;&lt;div&gt;Files&lt;/div&gt;" style="html=1;rounded=0;shadow=0;comic=0;labelBackgroundColor=none;strokeWidth=1;fontFamily=Verdana;fontSize=12;align=center;" parent="1" vertex="1">
          <mxGeometry x="632" y="90" width="90" height="30" as="geometry" />
        </mxCell>
        <mxCell id="W2CoI75CdyUiyKa4dSAK-13" value="&lt;div&gt;Commands&lt;/div&gt;&lt;div&gt;Queue&lt;/div&gt;" style="html=1;rounded=0;shadow=0;comic=0;labelBackgroundColor=none;strokeWidth=1;fontFamily=Verdana;fontSize=12;align=center;" parent="1" vertex="1">
          <mxGeometry x="260" y="100" width="140" height="30" as="geometry" />
        </mxCell>
        <mxCell id="W2CoI75CdyUiyKa4dSAK-23" value="" style="endArrow=classic;html=1;rounded=0;exitX=1;exitY=0.5;exitDx=0;exitDy=0;entryX=0;entryY=0.75;entryDx=0;entryDy=0;" parent="1" source="W2CoI75CdyUiyKa4dSAK-11" target="W2CoI75CdyUiyKa4dSAK-12" edge="1">
          <mxGeometry width="50" height="50" relative="1" as="geometry">
            <mxPoint x="157" y="55" as="sourcePoint" />
            <mxPoint x="427" y="120" as="targetPoint" />
            <Array as="points" />
          </mxGeometry>
        </mxCell>
        <mxCell id="W2CoI75CdyUiyKa4dSAK-27" value="" style="endArrow=classic;html=1;rounded=0;entryX=0.5;entryY=1;entryDx=0;entryDy=0;exitX=0.5;exitY=1;exitDx=0;exitDy=0;" parent="1" source="W2CoI75CdyUiyKa4dSAK-12" target="W2CoI75CdyUiyKa4dSAK-13" edge="1">
          <mxGeometry width="50" height="50" relative="1" as="geometry">
            <mxPoint x="600" y="420" as="sourcePoint" />
            <mxPoint x="650" y="370" as="targetPoint" />
            <Array as="points">
              <mxPoint x="680" y="230" />
              <mxPoint x="330" y="230" />
            </Array>
          </mxGeometry>
        </mxCell>
        <mxCell id="W2CoI75CdyUiyKa4dSAK-28" value="" style="endArrow=classic;html=1;rounded=0;exitX=1;exitY=0.5;exitDx=0;exitDy=0;entryX=0;entryY=0.5;entryDx=0;entryDy=0;" parent="1" source="W2CoI75CdyUiyKa4dSAK-10" target="W2CoI75CdyUiyKa4dSAK-12" edge="1">
          <mxGeometry width="50" height="50" relative="1" as="geometry">
            <mxPoint x="587" y="198" as="sourcePoint" />
            <mxPoint x="642" y="123" as="targetPoint" />
            <Array as="points" />
          </mxGeometry>
        </mxCell>
        <mxCell id="W2CoI75CdyUiyKa4dSAK-29" value="" style="endArrow=classic;html=1;rounded=0;exitX=1;exitY=0.5;exitDx=0;exitDy=0;entryX=0;entryY=0.5;entryDx=0;entryDy=0;" parent="1" source="W2CoI75CdyUiyKa4dSAK-8" target="W2CoI75CdyUiyKa4dSAK-12" edge="1">
          <mxGeometry width="50" height="50" relative="1" as="geometry">
            <mxPoint x="587" y="165" as="sourcePoint" />
            <mxPoint x="642" y="115" as="targetPoint" />
            <Array as="points" />
          </mxGeometry>
        </mxCell>
        <mxCell id="W2CoI75CdyUiyKa4dSAK-30" value="" style="endArrow=classic;html=1;rounded=0;exitX=1;exitY=0.5;exitDx=0;exitDy=0;entryX=0;entryY=0.5;entryDx=0;entryDy=0;" parent="1" source="W2CoI75CdyUiyKa4dSAK-9" target="W2CoI75CdyUiyKa4dSAK-12" edge="1">
          <mxGeometry width="50" height="50" relative="1" as="geometry">
            <mxPoint x="587" y="125" as="sourcePoint" />
            <mxPoint x="642" y="115" as="targetPoint" />
            <Array as="points" />
          </mxGeometry>
        </mxCell>
        <mxCell id="W2CoI75CdyUiyKa4dSAK-31" value="" style="endArrow=classic;html=1;rounded=0;exitX=1;exitY=0.5;exitDx=0;exitDy=0;entryX=0;entryY=0.25;entryDx=0;entryDy=0;" parent="1" source="W2CoI75CdyUiyKa4dSAK-7" target="W2CoI75CdyUiyKa4dSAK-12" edge="1">
          <mxGeometry width="50" height="50" relative="1" as="geometry">
            <mxPoint x="587" y="85" as="sourcePoint" />
            <mxPoint x="630" y="110" as="targetPoint" />
            <Array as="points" />
          </mxGeometry>
        </mxCell>
        <mxCell id="W2CoI75CdyUiyKa4dSAK-33" value="" style="endArrow=classic;html=1;rounded=0;exitX=1;exitY=0.5;exitDx=0;exitDy=0;entryX=0;entryY=0.5;entryDx=0;entryDy=0;" parent="1" source="W2CoI75CdyUiyKa4dSAK-13" target="W2CoI75CdyUiyKa4dSAK-10" edge="1">
          <mxGeometry width="50" height="50" relative="1" as="geometry">
            <mxPoint x="764" y="480" as="sourcePoint" />
            <mxPoint x="819" y="398" as="targetPoint" />
            <Array as="points" />
          </mxGeometry>
        </mxCell>
        <mxCell id="W2CoI75CdyUiyKa4dSAK-34" value="" style="endArrow=classic;html=1;rounded=0;entryX=0;entryY=0.5;entryDx=0;entryDy=0;" parent="1" target="W2CoI75CdyUiyKa4dSAK-8" edge="1">
          <mxGeometry width="50" height="50" relative="1" as="geometry">
            <mxPoint x="400" y="115" as="sourcePoint" />
            <mxPoint x="819" y="390" as="targetPoint" />
            <Array as="points" />
          </mxGeometry>
        </mxCell>
        <mxCell id="W2CoI75CdyUiyKa4dSAK-35" value="" style="endArrow=classic;html=1;rounded=0;entryX=0;entryY=0.5;entryDx=0;entryDy=0;" parent="1" target="W2CoI75CdyUiyKa4dSAK-9" edge="1">
          <mxGeometry width="50" height="50" relative="1" as="geometry">
            <mxPoint x="400" y="115" as="sourcePoint" />
            <mxPoint x="819" y="390" as="targetPoint" />
            <Array as="points" />
          </mxGeometry>
        </mxCell>
        <mxCell id="W2CoI75CdyUiyKa4dSAK-36" value="" style="endArrow=classic;html=1;rounded=0;exitX=1;exitY=0.25;exitDx=0;exitDy=0;entryX=0;entryY=0.5;entryDx=0;entryDy=0;" parent="1" source="W2CoI75CdyUiyKa4dSAK-13" target="W2CoI75CdyUiyKa4dSAK-7" edge="1">
          <mxGeometry width="50" height="50" relative="1" as="geometry">
            <mxPoint x="764" y="325" as="sourcePoint" />
            <mxPoint x="880" y="290" as="targetPoint" />
            <Array as="points" />
          </mxGeometry>
        </mxCell>
        <mxCell id="W2CoI75CdyUiyKa4dSAK-37" value="" style="endArrow=classic;html=1;rounded=0;exitX=1;exitY=0.75;exitDx=0;exitDy=0;entryX=0;entryY=0.5;entryDx=0;entryDy=0;" parent="1" source="W2CoI75CdyUiyKa4dSAK-13" target="W2CoI75CdyUiyKa4dSAK-11" edge="1">
          <mxGeometry width="50" height="50" relative="1" as="geometry">
            <mxPoint x="410" y="125" as="sourcePoint" />
            <mxPoint x="447" y="165" as="targetPoint" />
            <Array as="points" />
          </mxGeometry>
        </mxCell>
        <mxCell id="W2CoI75CdyUiyKa4dSAK-38" value="&lt;div&gt;SM mode vs&lt;/div&gt;&lt;div&gt;AutoPilot mode&lt;/div&gt;" style="html=1;rounded=0;shadow=0;comic=0;labelBackgroundColor=none;strokeWidth=1;fontFamily=Verdana;fontSize=12;align=center;" parent="1" vertex="1">
          <mxGeometry x="622" y="25" width="110" height="30" as="geometry" />
        </mxCell>
        <mxCell id="W2CoI75CdyUiyKa4dSAK-39" value="" style="endArrow=classic;html=1;rounded=0;exitX=0.5;exitY=1;exitDx=0;exitDy=0;entryX=0.5;entryY=0;entryDx=0;entryDy=0;" parent="1" source="W2CoI75CdyUiyKa4dSAK-38" target="W2CoI75CdyUiyKa4dSAK-12" edge="1">
          <mxGeometry width="50" height="50" relative="1" as="geometry">
            <mxPoint x="587" y="50" as="sourcePoint" />
            <mxPoint x="642" y="108" as="targetPoint" />
            <Array as="points" />
          </mxGeometry>
        </mxCell>
        <mxCell id="W2CoI75CdyUiyKa4dSAK-40" value="" style="endArrow=classic;html=1;rounded=0;exitX=1;exitY=0.5;exitDx=0;exitDy=0;entryX=0;entryY=0;entryDx=135;entryDy=530;entryPerimeter=0;" parent="1" source="W2CoI75CdyUiyKa4dSAK-6" target="39150e848f15840c-2" edge="1">
          <mxGeometry width="50" height="50" relative="1" as="geometry">
            <mxPoint x="220" y="290" as="sourcePoint" />
            <mxPoint x="270" y="240" as="targetPoint" />
          </mxGeometry>
        </mxCell>
        <mxCell id="W2CoI75CdyUiyKa4dSAK-41" value="Load" style="edgeLabel;html=1;align=center;verticalAlign=middle;resizable=0;points=[];" parent="W2CoI75CdyUiyKa4dSAK-40" vertex="1" connectable="0">
          <mxGeometry x="0.325" y="-1" relative="1" as="geometry">
            <mxPoint as="offset" />
          </mxGeometry>
        </mxCell>
        <mxCell id="W2CoI75CdyUiyKa4dSAK-45" value="&lt;div&gt;YAML File&lt;/div&gt;&lt;div&gt;SM to be loaded into Teachix&lt;/div&gt;" style="html=1;rounded=0;shadow=0;comic=0;labelBackgroundColor=none;strokeWidth=1;fontFamily=Verdana;fontSize=12;align=center;" parent="1" vertex="1">
          <mxGeometry x="-118" y="320" width="210" height="60" as="geometry" />
        </mxCell>
        <mxCell id="W2CoI75CdyUiyKa4dSAK-46" value="" style="endArrow=classic;html=1;rounded=0;entryX=0.597;entryY=1.005;entryDx=0;entryDy=0;entryPerimeter=0;exitX=0.75;exitY=0;exitDx=0;exitDy=0;" parent="1" source="W2CoI75CdyUiyKa4dSAK-45" target="39150e848f15840c-2" edge="1">
          <mxGeometry width="50" height="50" relative="1" as="geometry">
            <mxPoint x="-65" y="86" as="sourcePoint" />
            <mxPoint x="-64" y="330" as="targetPoint" />
          </mxGeometry>
        </mxCell>
        <mxCell id="W2CoI75CdyUiyKa4dSAK-47" value="Load" style="edgeLabel;html=1;align=center;verticalAlign=middle;resizable=0;points=[];" parent="W2CoI75CdyUiyKa4dSAK-46" vertex="1" connectable="0">
          <mxGeometry x="0.0029" y="3" relative="1" as="geometry">
            <mxPoint x="-2" y="10" as="offset" />
          </mxGeometry>
        </mxCell>
        <mxCell id="W2CoI75CdyUiyKa4dSAK-48" value="&lt;div&gt;GraphMachine&lt;/div&gt;" style="html=1;rounded=0;shadow=0;comic=0;labelBackgroundColor=none;strokeWidth=1;fontFamily=Verdana;fontSize=12;align=center;" parent="1" vertex="1">
          <mxGeometry x="276" y="540" width="210" height="33" as="geometry" />
        </mxCell>
        <mxCell id="W2CoI75CdyUiyKa4dSAK-49" value="&lt;div&gt;FLModel callback&lt;/div&gt;" style="html=1;rounded=0;shadow=0;comic=0;labelBackgroundColor=none;strokeWidth=1;fontFamily=Verdana;fontSize=12;align=center;" parent="1" vertex="1">
          <mxGeometry x="276" y="597" width="210" height="33" as="geometry" />
        </mxCell>
        <mxCell id="W2CoI75CdyUiyKa4dSAK-50" value="&lt;div&gt;FLGUISM&lt;/div&gt;" style="html=1;rounded=0;shadow=0;comic=0;labelBackgroundColor=none;strokeWidth=1;fontFamily=Verdana;fontSize=12;align=center;" parent="1" vertex="1">
          <mxGeometry x="276" y="482" width="210" height="33" as="geometry" />
        </mxCell>
        <mxCell id="W2CoI75CdyUiyKa4dSAK-51" value="&lt;div&gt;SM Log File&lt;/div&gt;" style="html=1;rounded=0;shadow=0;comic=0;labelBackgroundColor=none;strokeWidth=1;fontFamily=Verdana;fontSize=12;align=center;" parent="1" vertex="1">
          <mxGeometry x="536" y="540" width="210" height="33" as="geometry" />
        </mxCell>
        <mxCell id="W2CoI75CdyUiyKa4dSAK-52" value="" style="endArrow=classic;html=1;rounded=0;entryX=0.5;entryY=0;entryDx=0;entryDy=0;exitX=0.5;exitY=1;exitDx=0;exitDy=0;" parent="1" source="W2CoI75CdyUiyKa4dSAK-50" target="W2CoI75CdyUiyKa4dSAK-48" edge="1">
          <mxGeometry width="50" height="50" relative="1" as="geometry">
            <mxPoint x="346" y="350" as="sourcePoint" />
            <mxPoint x="533" y="175" as="targetPoint" />
          </mxGeometry>
        </mxCell>
        <mxCell id="W2CoI75CdyUiyKa4dSAK-53" value="Log File" style="edgeLabel;html=1;align=center;verticalAlign=middle;resizable=0;points=[];" parent="W2CoI75CdyUiyKa4dSAK-52" vertex="1" connectable="0">
          <mxGeometry x="0.0029" y="3" relative="1" as="geometry">
            <mxPoint x="22" y="-5" as="offset" />
          </mxGeometry>
        </mxCell>
        <mxCell id="W2CoI75CdyUiyKa4dSAK-54" value="" style="endArrow=classic;html=1;rounded=0;entryX=0.5;entryY=0;entryDx=0;entryDy=0;exitX=0.5;exitY=1;exitDx=0;exitDy=0;" parent="1" edge="1">
          <mxGeometry width="50" height="50" relative="1" as="geometry">
            <mxPoint x="380.5" y="573" as="sourcePoint" />
            <mxPoint x="380.5" y="598" as="targetPoint" />
          </mxGeometry>
        </mxCell>
        <mxCell id="W2CoI75CdyUiyKa4dSAK-55" value="Log File" style="edgeLabel;html=1;align=center;verticalAlign=middle;resizable=0;points=[];" parent="W2CoI75CdyUiyKa4dSAK-54" vertex="1" connectable="0">
          <mxGeometry x="0.0029" y="3" relative="1" as="geometry">
            <mxPoint x="22" y="-5" as="offset" />
          </mxGeometry>
        </mxCell>
        <mxCell id="W2CoI75CdyUiyKa4dSAK-56" value="" style="endArrow=classic;html=1;rounded=0;entryX=0;entryY=0.25;entryDx=0;entryDy=0;exitX=1;exitY=0.5;exitDx=0;exitDy=0;" parent="1" source="W2CoI75CdyUiyKa4dSAK-50" target="W2CoI75CdyUiyKa4dSAK-51" edge="1">
          <mxGeometry width="50" height="50" relative="1" as="geometry">
            <mxPoint x="346" y="350" as="sourcePoint" />
            <mxPoint x="533" y="175" as="targetPoint" />
          </mxGeometry>
        </mxCell>
        <mxCell id="W2CoI75CdyUiyKa4dSAK-57" value="Print" style="edgeLabel;html=1;align=center;verticalAlign=middle;resizable=0;points=[];" parent="W2CoI75CdyUiyKa4dSAK-56" vertex="1" connectable="0">
          <mxGeometry x="0.0029" y="3" relative="1" as="geometry">
            <mxPoint x="-2" y="10" as="offset" />
          </mxGeometry>
        </mxCell>
        <mxCell id="W2CoI75CdyUiyKa4dSAK-58" value="" style="endArrow=classic;html=1;rounded=0;exitX=1;exitY=0.5;exitDx=0;exitDy=0;" parent="1" source="W2CoI75CdyUiyKa4dSAK-48" edge="1">
          <mxGeometry width="50" height="50" relative="1" as="geometry">
            <mxPoint x="496" y="509" as="sourcePoint" />
            <mxPoint x="536" y="557" as="targetPoint" />
          </mxGeometry>
        </mxCell>
        <mxCell id="W2CoI75CdyUiyKa4dSAK-59" value="Print" style="edgeLabel;html=1;align=center;verticalAlign=middle;resizable=0;points=[];" parent="W2CoI75CdyUiyKa4dSAK-58" vertex="1" connectable="0">
          <mxGeometry x="0.0029" y="3" relative="1" as="geometry">
            <mxPoint x="-2" y="10" as="offset" />
          </mxGeometry>
        </mxCell>
        <mxCell id="W2CoI75CdyUiyKa4dSAK-60" value="" style="endArrow=classic;html=1;rounded=0;exitX=1;exitY=0.5;exitDx=0;exitDy=0;entryX=0;entryY=0.75;entryDx=0;entryDy=0;" parent="1" source="W2CoI75CdyUiyKa4dSAK-49" target="W2CoI75CdyUiyKa4dSAK-51" edge="1">
          <mxGeometry width="50" height="50" relative="1" as="geometry">
            <mxPoint x="496" y="567" as="sourcePoint" />
            <mxPoint x="546" y="567" as="targetPoint" />
          </mxGeometry>
        </mxCell>
        <mxCell id="W2CoI75CdyUiyKa4dSAK-61" value="Print" style="edgeLabel;html=1;align=center;verticalAlign=middle;resizable=0;points=[];" parent="W2CoI75CdyUiyKa4dSAK-60" vertex="1" connectable="0">
          <mxGeometry x="0.0029" y="3" relative="1" as="geometry">
            <mxPoint x="-2" y="10" as="offset" />
          </mxGeometry>
        </mxCell>
        <mxCell id="AY9wH07KmgAVZhraWsbL-1" value="&lt;div&gt;MainGUI obj&lt;/div&gt;" style="html=1;rounded=0;shadow=0;comic=0;labelBackgroundColor=none;strokeWidth=1;fontFamily=Verdana;fontSize=12;align=center;" vertex="1" parent="1">
          <mxGeometry x="-91" y="464" width="119" height="33" as="geometry" />
        </mxCell>
        <mxCell id="AY9wH07KmgAVZhraWsbL-2" value="&lt;div&gt;Dictionary obj&lt;/div&gt;" style="html=1;rounded=0;shadow=0;comic=0;labelBackgroundColor=none;strokeWidth=1;fontFamily=Verdana;fontSize=12;align=center;" vertex="1" parent="1">
          <mxGeometry x="-91" y="523" width="119" height="33" as="geometry" />
        </mxCell>
        <mxCell id="AY9wH07KmgAVZhraWsbL-3" value="&lt;div&gt;FLGUISM_1&lt;/div&gt;" style="html=1;rounded=0;shadow=0;comic=0;labelBackgroundColor=none;strokeWidth=1;fontFamily=Verdana;fontSize=12;align=center;" vertex="1" parent="1">
          <mxGeometry x="-91" y="587" width="120" height="33" as="geometry" />
        </mxCell>
        <mxCell id="AY9wH07KmgAVZhraWsbL-4" value="&lt;div&gt;FLGUISM_2&lt;/div&gt;" style="html=1;rounded=0;shadow=0;comic=0;labelBackgroundColor=none;strokeWidth=1;fontFamily=Verdana;fontSize=12;align=center;" vertex="1" parent="1">
          <mxGeometry x="-91" y="620" width="120" height="33" as="geometry" />
        </mxCell>
        <mxCell id="AY9wH07KmgAVZhraWsbL-5" value="&lt;div&gt;FLGUISM_n&lt;/div&gt;" style="html=1;rounded=0;shadow=0;comic=0;labelBackgroundColor=none;strokeWidth=1;fontFamily=Verdana;fontSize=12;align=center;" vertex="1" parent="1">
          <mxGeometry x="-91" y="653" width="120" height="33" as="geometry" />
        </mxCell>
        <mxCell id="AY9wH07KmgAVZhraWsbL-7" value="" style="endArrow=classic;html=1;rounded=0;entryX=0.5;entryY=0;entryDx=0;entryDy=0;exitX=0.5;exitY=1;exitDx=0;exitDy=0;" edge="1" parent="1">
          <mxGeometry width="50" height="50" relative="1" as="geometry">
            <mxPoint x="-31" y="498" as="sourcePoint" />
            <mxPoint x="-31" y="523" as="targetPoint" />
          </mxGeometry>
        </mxCell>
        <mxCell id="AY9wH07KmgAVZhraWsbL-8" value="Contains" style="edgeLabel;html=1;align=center;verticalAlign=middle;resizable=0;points=[];" vertex="1" connectable="0" parent="AY9wH07KmgAVZhraWsbL-7">
          <mxGeometry x="0.0029" y="3" relative="1" as="geometry">
            <mxPoint x="22" y="-5" as="offset" />
          </mxGeometry>
        </mxCell>
        <mxCell id="AY9wH07KmgAVZhraWsbL-10" value="" style="endArrow=classic;html=1;rounded=0;entryX=0.5;entryY=0;entryDx=0;entryDy=0;exitX=0.5;exitY=1;exitDx=0;exitDy=0;" edge="1" parent="1">
          <mxGeometry width="50" height="50" relative="1" as="geometry">
            <mxPoint x="-32" y="556" as="sourcePoint" />
            <mxPoint x="-32" y="581" as="targetPoint" />
          </mxGeometry>
        </mxCell>
        <mxCell id="AY9wH07KmgAVZhraWsbL-11" value="Contains" style="edgeLabel;html=1;align=center;verticalAlign=middle;resizable=0;points=[];" vertex="1" connectable="0" parent="AY9wH07KmgAVZhraWsbL-10">
          <mxGeometry x="0.0029" y="3" relative="1" as="geometry">
            <mxPoint x="22" y="-5" as="offset" />
          </mxGeometry>
        </mxCell>
        <mxCell id="W2CoI75CdyUiyKa4dSAK-44" value="&lt;div&gt;Thread&lt;/div&gt;&lt;div&gt;FLGUIMain class&lt;br&gt;&lt;/div&gt;&lt;div&gt;GUI_main_SM_commands_execute&lt;/div&gt;" style="html=1;rounded=0;shadow=0;comic=0;labelBackgroundColor=none;strokeWidth=1;fontFamily=Verdana;fontSize=12;align=center;" parent="1" vertex="1">
          <mxGeometry x="510" y="320" width="230" height="63" as="geometry" />
        </mxCell>
        <mxCell id="W2CoI75CdyUiyKa4dSAK-43" value="&lt;div&gt;Main GUI thread&amp;nbsp;&lt;/div&gt;&lt;div&gt;has to stay in main thread&lt;br&gt;FLGUIMain class&lt;/div&gt;&lt;div&gt;GUI_&lt;span style=&quot;background-color: initial;&quot;&gt;main_event_loop&lt;/span&gt;&lt;/div&gt;" style="html=1;rounded=0;shadow=0;comic=0;labelBackgroundColor=none;strokeWidth=1;fontFamily=Verdana;fontSize=12;align=center;" parent="1" vertex="1">
          <mxGeometry x="276" y="320" width="210" height="63" as="geometry" />
        </mxCell>
        <mxCell id="AY9wH07KmgAVZhraWsbL-16" value="&lt;div&gt;Display is automatically setup according to the nr of monitors&lt;/div&gt;&lt;div&gt;Better to work with two monitors&amp;nbsp;&lt;span style=&quot;background-color: initial;&quot;&gt;in extension mode,&amp;nbsp;&lt;/span&gt;&lt;/div&gt;&lt;div&gt;Teachix stays on the second monitor&lt;/div&gt;" style="html=1;rounded=0;shadow=0;comic=0;labelBackgroundColor=none;strokeWidth=1;fontFamily=Verdana;fontSize=12;align=center;" vertex="1" parent="1">
          <mxGeometry x="287" y="680" width="403" height="60" as="geometry" />
        </mxCell>
        <mxCell id="AY9wH07KmgAVZhraWsbL-18" value="&lt;div&gt;Main Proceedings from GA:&lt;/div&gt;&lt;div&gt;- Sikulix removed, all code is now python based&lt;/div&gt;&lt;div&gt;&lt;span style=&quot;white-space: pre;&quot;&gt;&#x9;&lt;/span&gt;pytransitions for state machines&lt;/div&gt;&lt;div style=&quot;&quot;&gt;&lt;span style=&quot;white-space: pre;&quot;&gt;&#x9;&lt;/span&gt;cv2 for pattern matching&lt;/div&gt;&lt;div style=&quot;&quot;&gt;- From one state machine, to n states machines&lt;/div&gt;&lt;div style=&quot;&quot;&gt;- SM can send signals to other SM&lt;/div&gt;&lt;div style=&quot;&quot;&gt;- State feedback can be checked&lt;/div&gt;" style="html=1;rounded=0;shadow=0;comic=0;labelBackgroundColor=none;strokeWidth=1;fontFamily=Verdana;fontSize=12;align=left;" vertex="1" parent="1">
          <mxGeometry x="-159" y="-100" width="333" height="110" as="geometry" />
        </mxCell>
      </root>
    </mxGraphModel>
  </diagram>
</mxfile>
